<svg width="50" height="50" viewBox="0 0 50 50" fill="none" xmlns="http://www.w3.org/2000/svg">
<path d="M1.04477 1.09032C1.71393 0.420776 2.62139 0.0446493 3.56759 0.0446493C4.51379 0.0446493 5.42125 0.420776 6.09041 1.09032L24.9777 19.9939L43.865 1.09032C44.1941 0.749208 44.5879 0.477128 45.0232 0.289953C45.4586 0.102778 45.9268 0.00425562 46.4006 0.000134847C46.8744 -0.00398593 47.3443 0.0863765 47.7829 0.265951C48.2214 0.445526 48.6198 0.710715 48.9549 1.04605C49.2899 1.38138 49.5549 1.78013 49.7343 2.21905C49.9137 2.65797 50.004 3.12825 49.9999 3.60246C49.9957 4.07667 49.8973 4.54532 49.7103 4.98104C49.5233 5.41677 49.2514 5.81086 48.9106 6.14031L30.0233 25.0439L48.9106 43.9475C49.5606 44.621 49.9203 45.5232 49.9122 46.4596C49.904 47.396 49.5288 48.2918 48.8672 48.9539C48.2056 49.6161 47.3106 49.9917 46.375 49.9999C45.4393 50.008 44.538 49.648 43.865 48.9975L24.9777 30.0939L6.09041 48.9975C5.41741 49.648 4.51604 50.008 3.58043 49.9999C2.64482 49.9917 1.74983 49.6161 1.08823 48.9539C0.426631 48.2918 0.0513506 47.396 0.0432204 46.4596C0.0350902 45.5232 0.394761 44.621 1.04477 43.9475L19.932 25.0439L1.04477 6.14031C0.375803 5.47057 0 4.56233 0 3.61531C0 2.6683 0.375803 1.76006 1.04477 1.09032V1.09032Z" fill="white"/>
</svg>
