<svg width="54" height="54" viewBox="0 0 54 54" fill="none" xmlns="http://www.w3.org/2000/svg">
<path d="M37.75 35.25C35.25 38.5 31.25 40.75 27 40.75C19.5 40.75 13.5 34.75 13.5 27.25C13.5 19.75 19.5 13.5 27 13.5C30 13.5 33 14.5 35.25 16.25M40.5 25.5C41.2956 25.5 42.0587 25.1839 42.6213 24.6213C43.1839 24.0587 43.5 23.2956 43.5 22.5C43.5 21.7044 43.1839 20.9413 42.6213 20.3787C42.0587 19.8161 41.2956 19.5 40.5 19.5C39.7043 19.5 38.9413 19.8161 38.3787 20.3787C37.8161 20.9413 37.5 21.7044 37.5 22.5C37.5 23.2956 37.8161 24.0587 38.3787 24.6213C38.9413 25.1839 39.7043 25.5 40.5 25.5V25.5Z" stroke="white" stroke-width="3" stroke-miterlimit="10" stroke-linecap="round" stroke-linejoin="round"/>
<path d="M27 52C40.8075 52 52 40.8075 52 27C52 13.1925 40.8075 2 27 2C13.1925 2 2 13.1925 2 27C2 40.8075 13.1925 52 27 52Z" stroke="white" stroke-width="3" stroke-miterlimit="10" stroke-linecap="round" stroke-linejoin="round"/>
</svg>
